<?xml version="1.0" standalone="no"?>
<!DOCTYPE svg PUBLIC "-//W3C//DTD SVG 20010904//EN"
 "http://www.w3.org/TR/2001/REC-SVG-20010904/DTD/svg10.dtd">
<svg version="1.0" xmlns="http://www.w3.org/2000/svg"
 width="180.000000pt" height="180.000000pt" viewBox="0 0 180.000000 180.000000"
 preserveAspectRatio="xMidYMid meet">
<metadata>
Created by potrace 1.14, written by Peter Selinger 2001-2017
</metadata>
<g transform="translate(0.000000,180.000000) scale(0.100000,-0.100000)"
fill="#000000" stroke="none">
<path d="M927 1733 c-30 -8 -44 -53 -43 -134 1 -66 -1 -75 -14 -68 -8 4 -23
10 -32 13 -10 3 -18 13 -19 23 -1 37 -44 108 -67 111 -19 3 -27 -7 -54 -67
-29 -64 -35 -71 -61 -71 -25 0 -31 7 -58 68 -27 60 -34 69 -56 68 -21 -1 -29
-11 -50 -64 -20 -48 -35 -69 -62 -86 -20 -13 -43 -32 -52 -42 -16 -18 -43 -87
-53 -136 -3 -13 -12 -50 -21 -83 -9 -32 -15 -78 -13 -101 l3 -42 -40 -6 c-113
-18 -206 -81 -219 -151 -9 -48 9 -110 39 -129 31 -20 94 -21 122 -1 25 17 56
14 102 -10 l32 -16 -2 -102 c-1 -56 -6 -113 -11 -127 -20 -51 -23 -84 -28
-265 0 -19 -62 -45 -106 -45 -54 0 -82 -13 -93 -43 -22 -57 34 -78 112 -43 30
13 60 20 67 16 7 -4 20 -5 30 -3 15 4 20 -3 25 -31 4 -20 10 -37 14 -38 12 -3
116 -7 166 -7 67 0 160 0 215 0 47 -1 217 -1 285 -2 22 0 94 0 160 0 66 0 147
0 180 0 152 -1 141 -3 165 43 25 51 56 58 122 28 54 -25 80 -25 101 -2 40 44
8 83 -70 87 -32 1 -71 10 -88 19 -29 15 -30 18 -31 88 0 82 -10 144 -31 203
-7 22 -13 73 -13 115 1 41 1 84 1 96 0 22 45 54 76 54 11 0 34 -11 53 -25 84
-62 181 2 176 116 -4 91 -64 140 -206 164 -19 3 -35 7 -37 8 -1 2 4 23 11 47
18 61 12 134 -19 221 -31 90 -47 115 -91 141 l-34 20 0 77 c0 85 -12 107 -61
114 -37 7 -53 -7 -115 -95 -60 -86 -71 -98 -91 -98 -6 0 -41 42 -78 94 -57 81
-89 110 -115 105 -3 -1 -13 -3 -23 -6z"/>
</g>
</svg>
